<svg xmlns="http://www.w3.org/2000/svg" viewBox="0 0 280 100" fill="none" aria-hidden="true">
  <path d="M 6 90 L 150 90" stroke="#1c1917" stroke-width="2.4" stroke-linecap="round"/>
  <path d="M 22 90 Q 38 52 58 38 Q 76 24 94 30 Q 102 20 110 28" stroke="#1c1917" stroke-width="2.4" stroke-linecap="round" stroke-linejoin="round"/>
  <path d="M 110 28 L 114 10 M 108 22 L 124 8" stroke="#1c1917" stroke-width="2.4" stroke-linecap="round" stroke-linejoin="round"/>
  <path d="M 38 52 Q 62 46 96 56" stroke="#1c1917" stroke-width="2.4" stroke-linecap="round" stroke-linejoin="round"/>
  <path d="M 18 90 L 12 90 M 26 90 L 32 74 M 36 88 L 44 70" stroke="#1c1917" stroke-width="2.4" stroke-linecap="round" stroke-linejoin="round"/>
  <path d="M 94 50 L 124 44 M 88 56 L 118 54" stroke="#1c1917" stroke-width="2.4" stroke-linecap="round" stroke-linejoin="round"/>
  <path d="M 22 90 Q 10 78 8 66" stroke="#1c1917" stroke-width="2.4" stroke-linecap="round" stroke-linejoin="round"/>
  <path d="M 168 60 L 168 94 L 268 94 L 268 60" stroke="#1c1917" stroke-width="2.4" stroke-linecap="round" stroke-linejoin="round"/>
  <path d="M 168 60 L 218 16 L 268 60" stroke="#1c1917" stroke-width="2.4" stroke-linecap="round" stroke-linejoin="round"/>
  <path d="M 218 16 L 218 60" stroke="#1c1917" stroke-width="2.4" stroke-linecap="round" stroke-linejoin="round"/>
  <path d="M 168 94 L 218 60 L 268 94" stroke="#1c1917" stroke-width="2.4" stroke-linecap="round" stroke-linejoin="round"/>
  <path d="M 188 60 L 218 78 L 248 60" stroke="#1c1917" stroke-width="2.2" stroke-linecap="round" stroke-linejoin="round"/>
</svg>
